<svg xmlns="http://www.w3.org/2000/svg" viewBox="0 0 720 380" width="720" height="380" font-family="Helvetica, Arial, sans-serif">
<defs><marker id="arrow" viewBox="0 0 10 10" refX="9" refY="5" markerWidth="7" markerHeight="7" orient="auto-start-reverse"><path d="M1 1 L9 5 L1 9" fill="none" stroke="#555555" stroke-width="1.6" stroke-linecap="round" stroke-linejoin="round"/></marker></defs>
<rect x="0" y="0" width="720" height="380" fill="#ffffff"/>
<text x="360.0" y="26" text-anchor="middle" font-size="15" font-weight="bold" fill="#1a1a1a">Bloc 3 — Graphe de tâches du DAG</text>
<rect x="455" y="30" width="235" height="210" rx="8" fill="none" stroke="#666666" stroke-width="1.3" stroke-dasharray="6 4"/>
<text x="467" y="47" font-family="Helvetica, Arial, sans-serif" font-size="11" fill="#666666" font-weight="bold">load_branch (TaskGroup)</text>
<path d="M 195 127 L 218 127 L 218 168 L 240 168" fill="none" stroke="#555555" stroke-width="1.6" marker-end="url(#arrow)"/>
<rect x="202" y="138" width="32" height="16" rx="3" fill="#ffffff" stroke="#dddddd" stroke-width="0.7"/>
<text x="218" y="147" text-anchor="middle" dominant-baseline="central" font-family="Helvetica, Arial, sans-serif" font-size="10" fill="#333333">XCom</text>
<path d="M 195 275 L 218 275 L 218 168 L 240 168" fill="none" stroke="#555555" stroke-width="1.6" marker-end="url(#arrow)"/>
<rect x="204" y="212" width="28" height="16" rx="3" fill="#ffffff" stroke="#dddddd" stroke-width="0.7"/>
<text x="218" y="221" text-anchor="middle" dominant-baseline="central" font-family="Helvetica, Arial, sans-serif" font-size="10" fill="#333333">pkl</text>
<path d="M 425 168 L 450 168 L 450 88 L 475 88" fill="none" stroke="#555555" stroke-width="1.6" marker-end="url(#arrow)"/>
<path d="M 572 116 L 572 136 L 572 136 L 572 155" fill="none" stroke="#555555" stroke-width="1.6" marker-end="url(#arrow)"/>
<path d="M 332 215 L 332 252 L 340 252 L 340 290" fill="none" stroke="#555555" stroke-width="1.6" marker-end="url(#arrow)"/>
<rect x="20" y="95" width="175" height="64" rx="8" fill="#dae8fc" stroke="#6c8ebf" stroke-width="1.5"/>
<text x="107.5" y="119.0" text-anchor="middle" dominant-baseline="central" font-family="Helvetica, Arial, sans-serif" font-size="12" font-weight="bold" fill="#1a1a1a">extract_raw_…_batch</text>
<text x="107.5" y="135.0" text-anchor="middle" dominant-baseline="central" font-family="Helvetica, Arial, sans-serif" font-size="10.5" font-weight="normal" fill="#444444">→ S3 (JSON brut)</text>
<rect x="20" y="245" width="175" height="60" rx="8" fill="#f5f5f5" stroke="#666666" stroke-width="1.5"/>
<text x="107.5" y="267.0" text-anchor="middle" dominant-baseline="central" font-family="Helvetica, Arial, sans-serif" font-size="12" font-weight="bold" fill="#1a1a1a">load_model (pkl only)</text>
<text x="107.5" y="283.0" text-anchor="middle" dominant-baseline="central" font-family="Helvetica, Arial, sans-serif" font-size="10.5" font-weight="normal" fill="#444444">MLflow → pickle</text>
<rect x="240" y="120" width="185" height="95" rx="8" fill="#ffe6cc" stroke="#d79b00" stroke-width="1.5"/>
<text x="332.5" y="151.5" text-anchor="middle" dominant-baseline="central" font-family="Helvetica, Arial, sans-serif" font-size="12" font-weight="bold" fill="#1a1a1a">predict_with_model_fraud</text>
<text x="332.5" y="167.5" text-anchor="middle" dominant-baseline="central" font-family="Helvetica, Arial, sans-serif" font-size="10.5" font-weight="normal" fill="#444444">api : POST /predict</text>
<text x="332.5" y="183.5" text-anchor="middle" dominant-baseline="central" font-family="Helvetica, Arial, sans-serif" font-size="10.5" font-weight="normal" fill="#444444">pkl : predict local</text>
<rect x="475" y="60" width="195" height="56" rx="8" fill="#d5e8d4" stroke="#82b366" stroke-width="1.5"/>
<text x="572.5" y="88.0" text-anchor="middle" dominant-baseline="central" font-family="Helvetica, Arial, sans-serif" font-size="12" font-weight="bold" fill="#1a1a1a">create_predictions_table</text>
<rect x="475" y="155" width="195" height="60" rx="8" fill="#d5e8d4" stroke="#82b366" stroke-width="1.5"/>
<text x="572.5" y="177.0" text-anchor="middle" dominant-baseline="central" font-family="Helvetica, Arial, sans-serif" font-size="12" font-weight="bold" fill="#1a1a1a">S3ToPostgresOperator</text>
<text x="572.5" y="193.0" text-anchor="middle" dominant-baseline="central" font-family="Helvetica, Arial, sans-serif" font-size="10.5" font-weight="normal" fill="#444444">(opérateur custom)</text>
<rect x="240" y="290" width="200" height="64" rx="8" fill="#fff2cc" stroke="#d6b656" stroke-width="1.5"/>
<text x="340.0" y="314.0" text-anchor="middle" dominant-baseline="central" font-family="Helvetica, Arial, sans-serif" font-size="12" font-weight="bold" fill="#1a1a1a">notify_fraud</text>
<text x="340.0" y="330.0" text-anchor="middle" dominant-baseline="central" font-family="Helvetica, Arial, sans-serif" font-size="10.5" font-weight="normal" fill="#444444">SMTP + CSV joint</text>
</svg>